# xmcd
# 
# Track frame offsets:
#     182
#     28952
#     43777
#     56817
#     78570
#     104977
#     119520
#     135070
#     158450
#     169982
#     190920
#     215050
#     233325
#     248970
#     269457
#     289220
#     308265
#     319050
#     338337
# 
# Disc length: 4627
# 
# Revision: 6
# Processed by: cddbd v1.5.2PL0 Copyright (c) Steve Scherf et al.
# Submitted via: fre:ac v1.1beta1pre5
# 
DISCID=10121113
DTITLE=Chicago Blues - Chicago Blues
DYEAR=1993
DGENRE=Blues
TTITLE0=First Time I Met The Blues
TTITLE1=Don't Stay Out All Night
TTITLE2=Hoochie Coochie Man
TTITLE3=Born With The Blues
TTITLE4=Country Girl
TTITLE5=I Wish You Would
TTITLE6=Roadrunner
TTITLE7=Born In Missouri
TTITLE8=The Leading Band
TTITLE9=Why Do You Want To Hurt Me
TTITLE10=When My First Wife Quit Me
TTITLE11=Wang Dang Doodle
TTITLE12=I Had It So Hard
TTITLE13=She's 19 Years Old
TTITLE14=You Don't Know What Love Is
TTITLE15=You Went Away Baby
TTITLE16=Moaning For Molasses
TTITLE17=I Don't Like To Travel
TTITLE18=The Foxtrot
EXTD=
EXTT0=
EXTT1=
EXTT2=
EXTT3=
EXTT4=
EXTT5=
EXTT6=
EXTT7=
EXTT8=
EXTT9=
EXTT10=
EXTT11=
EXTT12=
EXTT13=
EXTT14=
EXTT15=
EXTT16=
EXTT17=
EXTT18=
PLAYORDER=
